<svg version="1.1" id="Layer_1" xmlns="http://www.w3.org/2000/svg" xmlns:xlink="http://www.w3.org/1999/xlink" x="0px" y="0px"
	 width="100%" viewBox="0 0 1024 1024" enable-background="new 0 0 1024 1024" xml:space="preserve">
<path fill="#764ba2" opacity="1.000000" stroke="none"
	d="
M401.952698,160.837524 
	C437.096893,148.227829 471.898163,135.814362 506.616364,123.172630 
	C510.591370,121.725227 513.843079,122.242111 517.593994,123.612930 
	C557.144653,138.067093 596.762878,152.336243 636.331726,166.740784 
	C676.682251,181.429886 716.988220,196.241272 757.348145,210.904434 
	C760.726624,212.131821 762.417175,213.690002 762.406128,217.637924 
	C762.281616,262.125397 764.260437,306.609436 763.187134,351.092285 
	C762.162109,393.569885 754.297363,434.747650 736.145630,473.438660 
	C717.027893,514.188416 689.184265,548.289673 655.390076,577.831482 
	C613.862427,614.133667 568.176270,644.048340 518.793640,668.481934 
	C514.085449,670.811523 510.223358,671.138245 505.280914,668.792358 
	C467.778137,650.992004 433.154694,628.673096 400.320251,603.378723 
	C379.549713,587.377808 359.831848,570.192444 341.679199,551.333313 
	C322.989655,531.916321 307.917572,509.778687 294.869110,486.173737 
	C279.624695,458.596191 270.598450,428.959503 265.076508,398.202606 
	C262.173828,382.034912 260.579315,365.636047 260.660553,349.130432 
	C260.800781,320.635559 260.510864,292.134644 261.012543,263.647034 
	C261.288239,247.993240 261.813843,232.339447 261.566833,216.686356 
	C261.501160,212.526291 263.154358,210.836044 266.752563,209.556549 
	C290.906036,200.967850 315.006683,192.230621 339.120361,183.530228 
	C359.944733,176.016632 380.763733,168.488037 401.952698,160.837524 
M464.401245,222.920105 
	C441.229980,238.752838 428.521393,260.527618 426.134766,288.618134 
	C425.228180,299.288788 425.523163,309.911835 425.442444,320.554504 
	C425.413757,324.340179 424.292938,326.038818 420.388336,326.008942 
	C413.392029,325.955322 406.393951,326.158478 399.396423,326.239807 
	C386.247070,326.392639 381.330048,331.259277 381.319031,344.413635 
	C381.283600,386.742889 381.456635,429.073151 381.188416,471.400757 
	C381.124847,481.430725 384.820129,489.267609 392.163300,495.458954 
	C426.271149,524.216309 463.796997,547.440735 504.791565,565.142273 
	C510.715942,567.700378 515.478943,566.810303 520.843201,564.405640 
	C540.952576,555.391174 560.192688,544.778931 578.881226,533.152466 
	C596.721741,522.053589 613.892212,510.019409 630.014771,496.492188 
	C639.024597,488.932648 644.169067,480.013245 643.082092,467.839600 
	C642.491028,461.219635 642.693665,454.516663 642.751282,447.852966 
	C643.045166,413.866241 642.104187,379.874664 643.542114,345.888824 
	C644.100769,332.686249 637.073486,325.816650 623.857422,325.454498 
	C617.529297,325.281097 611.192505,325.442657 604.860229,325.385437 
	C603.246887,325.370850 601.510864,325.841034 599.683777,324.297363 
	C599.683777,315.626404 599.468567,306.640594 599.727112,297.668427 
	C600.328857,276.784576 593.688721,258.562408 580.796082,242.216537 
	C562.979675,219.628098 539.894409,208.268799 511.189758,208.341156 
	C494.386108,208.383514 479.157257,213.740646 464.401245,222.920105 
z"/>
<path fill="#764ba2" opacity="1.000000" stroke="none"
	d="
M512.582520,799.204224 
	C525.285217,805.300415 529.762390,815.536255 529.396606,828.723999 
	C529.010681,842.637634 523.355347,853.446106 510.529755,859.132874 
	C492.713501,867.032410 474.527954,866.721985 456.919098,858.279419 
	C445.327332,852.721680 439.733978,842.527466 437.813934,830.124390 
	C437.408600,827.506104 438.309845,825.917358 441.221710,825.928589 
	C446.386444,825.948486 451.551514,825.949036 456.716125,825.912537 
	C458.824768,825.897644 459.861572,826.784912 460.643097,828.866089 
	C464.971954,840.394592 476.407959,846.651245 488.888702,844.386536 
	C492.464294,843.737732 496.050690,843.093506 499.372009,841.328735 
	C504.456543,838.627136 506.881409,834.549683 506.954987,828.839050 
	C507.028015,823.172485 503.721222,819.918701 499.123322,817.700989 
	C492.757782,814.630493 485.769531,813.730835 478.933197,812.342224 
	C472.414246,811.018188 465.935760,809.526428 459.657043,807.307190 
	C446.863129,802.785095 439.479797,793.785522 438.984406,780.183411 
	C438.502441,766.949219 442.571503,755.321594 454.846130,748.423828 
	C470.279083,739.751343 486.708160,739.220398 503.114929,744.894653 
	C517.829712,749.983643 524.310364,761.620789 525.778809,777.127258 
	C518.753174,778.573853 511.849457,778.109497 504.973785,777.590698 
	C503.217804,777.458191 503.046082,775.582153 502.616669,774.128479 
	C500.356049,766.475464 494.585632,762.712830 487.252197,761.650879 
	C479.351990,760.506897 471.405701,760.882141 465.529816,767.496765 
	C459.644562,774.122009 461.757812,783.756348 470.028046,787.422974 
	C478.748810,791.289307 488.295288,792.298584 497.501862,794.452148 
	C502.543488,795.631409 507.494049,796.976501 512.582520,799.204224 
z"/>
<path fill="#764ba2" opacity="1.000000" stroke="none"
	d="
M814.071045,784.160583 
	C818.724121,771.808533 823.279602,759.831421 827.680115,747.797729 
	C828.731812,744.921753 830.231934,743.463501 833.487671,743.598816 
	C838.809570,743.820007 844.147278,743.720215 849.477234,743.658691 
	C851.880676,743.630981 853.531860,744.290039 854.481567,746.775696 
	C868.969971,784.695251 883.523315,822.590088 898.043457,860.497559 
	C898.148438,860.771545 898.002136,861.141724 897.903625,862.245544 
	C890.761475,862.245544 883.530273,862.328064 876.303040,862.197021 
	C874.028870,862.155823 873.611633,859.919250 872.991394,858.264587 
	C870.480286,851.565308 867.979675,844.859070 865.662720,838.091187 
	C864.566223,834.888306 863.003235,833.226685 859.236511,833.299988 
	C847.246887,833.533569 835.248291,833.487183 823.256470,833.318420 
	C819.889160,833.270996 818.043335,834.445068 816.937012,837.594299 
	C814.566101,844.343323 811.751587,850.942200 809.544800,857.740845 
	C808.358032,861.397034 806.442383,862.651855 802.679077,862.461304 
	C796.928162,862.170166 791.151611,862.385010 784.350586,862.385010 
	C794.468994,835.735474 804.192871,810.125122 814.071045,784.160583 
M838.905762,773.345825 
	C834.155823,786.883667 829.405884,800.421509 824.560059,814.232666 
	C835.962708,814.232666 846.469604,814.232666 857.492432,814.232666 
	C851.800049,798.372864 846.321838,783.109619 840.721497,767.506042 
	C840.126038,769.494995 839.654480,771.070312 838.905762,773.345825 
z"/>
<path fill="#764ba2" opacity="1.000000" stroke="none"
	d="
M95.778847,752.066650 
	C95.823364,743.661804 95.823364,743.657593 103.611359,743.657959 
	C117.430580,743.658569 131.249924,743.629639 145.068985,743.677002 
	C167.524139,743.753906 181.843109,758.570312 182.487396,780.915527 
	C183.077606,801.385193 170.535126,819.408020 144.967636,820.511414 
	C138.313171,820.798462 131.661072,821.197998 125.015541,820.989319 
	C120.753372,820.855347 119.120880,822.140625 119.254044,826.643494 
	C119.554138,836.790833 119.176239,846.957153 119.416649,857.107666 
	C119.516548,861.325928 117.967644,862.701965 113.913055,862.450806 
	C109.600533,862.183655 105.244156,862.162292 100.934235,862.447083 
	C96.699951,862.726807 95.542336,860.970642 95.584984,856.945435 
	C95.791359,837.468079 95.782494,817.988220 95.808945,798.509216 
	C95.829742,783.191528 95.790855,767.873779 95.778847,752.066650 
M124.775284,802.647644 
	C129.604141,802.641174 134.442276,802.825378 139.260010,802.590698 
	C151.193222,802.009277 159.285217,794.648193 159.756729,784.188416 
	C160.348068,771.070618 154.390884,764.120178 141.361084,762.124084 
	C135.539673,761.232422 129.734390,761.654358 123.927872,761.363892 
	C120.455650,761.190186 119.211838,762.625366 119.255844,766.053833 
	C119.392601,776.709045 119.417313,787.368225 119.270210,798.022949 
	C119.222870,801.451782 120.348167,803.066040 124.775284,802.647644 
z"/>
<path fill="#764ba2" opacity="1.000000" stroke="none"
	d="
M603.136353,862.395508 
	C596.744446,863.457031 593.242493,860.552795 591.349854,854.467468 
	C581.587708,864.697510 570.087036,866.174377 557.758301,863.282654 
	C547.085388,860.779175 539.643066,851.903748 538.743652,841.420471 
	C537.629639,828.435608 542.447021,819.814148 553.708984,814.884888 
	C562.472961,811.048889 571.779175,810.730408 581.142090,810.909180 
	C581.475037,810.915527 581.829590,810.985901 582.138123,810.898987 
	C585.552612,809.937561 590.271179,813.267944 592.390381,808.632874 
	C594.164062,804.753601 590.293396,796.200500 586.433411,793.595886 
	C579.250427,788.748718 567.763245,791.221680 563.318359,798.653137 
	C562.501404,800.018982 561.739136,801.233337 559.998108,801.239685 
	C554.051086,801.261292 548.103943,801.247925 542.279358,801.247925 
	C540.714600,792.685974 544.832947,783.764832 552.502380,779.208435 
	C564.729980,771.944153 578.032715,772.302673 591.240295,775.065369 
	C606.645752,778.287720 614.259155,788.388245 614.331604,804.262085 
	C614.391602,817.418457 614.414795,830.575378 614.361023,843.731750 
	C614.336487,849.748779 614.605164,855.684265 617.544861,861.575195 
	C612.734070,863.126160 608.115601,862.051758 603.136353,862.395508 
M586.309387,842.843689 
	C590.695068,838.874695 591.619507,833.433594 592.536377,828.019348 
	C592.849060,826.172974 592.244507,824.567688 590.064392,824.504272 
	C582.440125,824.282593 574.741638,823.736389 567.474365,826.781860 
	C563.052124,828.635071 560.815369,832.034058 561.096802,836.985779 
	C561.383728,842.034668 564.372620,845.074829 568.837891,846.200928 
	C574.746155,847.690857 580.725220,847.793640 586.309387,842.843689 
z"/>
<path fill="#764ba2" opacity="1.000000" stroke="none"
	d="
M751.085693,788.026855 
	C757.882874,798.309204 759.410950,809.568115 759.652344,821.176086 
	C759.731445,824.978699 757.035156,824.364685 754.814819,824.369995 
	C739.498840,824.406738 724.182678,824.381348 708.866577,824.388855 
	C702.353699,824.392090 701.758484,825.005615 703.538330,831.224060 
	C705.734802,838.898071 710.127747,844.898438 718.419128,846.396057 
	C726.269714,847.814087 732.430969,844.655090 736.447327,837.686584 
	C737.475891,835.901978 738.857544,835.025696 740.874634,835.025696 
	C745.535522,835.025757 750.196472,835.010376 754.857361,835.006470 
	C757.825989,835.003967 758.498718,836.324829 757.725037,839.165527 
	C753.876587,853.295532 744.064148,860.614563 730.331726,863.664429 
	C711.731750,867.795288 692.721252,859.539307 685.465759,843.044617 
	C678.060974,826.210632 678.221130,808.786011 686.586365,792.390137 
	C698.541626,768.957764 733.755310,766.689270 751.085693,788.026855 
M726.589539,792.731506 
	C716.521606,789.415466 707.762024,793.919617 704.242493,804.222168 
	C702.336121,809.802673 702.959167,810.749695 708.678955,810.800110 
	C713.003296,810.838257 717.328125,810.811707 721.652771,810.812500 
	C726.730164,810.813416 731.807556,810.812744 737.215637,810.812744 
	C736.257202,802.827881 733.982361,796.688232 726.589539,792.731506 
z"/>
<path fill="#764ba2" opacity="1.000000" stroke="none"
	d="
M312.745911,833.889771 
	C310.230133,821.351624 310.364868,809.328491 314.774078,797.657959 
	C320.768463,781.791626 333.200165,773.612427 350.731598,773.632629 
	C368.673706,773.653320 380.388641,781.426880 386.551941,797.645203 
	C389.230591,804.693909 390.242706,812.073059 390.408661,819.623718 
	C390.491852,823.410522 388.988403,824.474548 385.414398,824.444214 
	C369.932373,824.312561 354.448547,824.369812 338.965454,824.390198 
	C333.007690,824.398071 332.383148,825.332703 334.185333,831.239197 
	C337.264160,841.329773 343.404327,846.654236 351.954620,846.673096 
	C357.875885,846.686096 362.959595,844.571960 365.850281,839.396179 
	C368.032410,835.489075 370.895508,834.657471 374.845734,834.936279 
	C379.428467,835.259888 384.082703,834.500977 389.099121,835.545349 
	C387.778168,846.479736 382.155182,854.117188 373.214447,859.209717 
	C354.792664,869.702332 321.060364,866.703064 312.745911,833.889771 
M335.180115,802.748474 
	C334.712921,804.167908 334.248779,805.588379 333.777740,807.006470 
	C332.895172,809.663818 334.063721,810.778870 336.646027,810.779968 
	C345.968079,810.783936 355.290131,810.773071 364.612183,810.769287 
	C366.633362,810.768494 367.651398,809.908569 367.600494,807.740845 
	C367.465027,801.972595 361.899628,794.274414 356.371765,792.364929 
	C347.915741,789.443848 340.583557,792.834717 335.180115,802.748474 
z"/>
<path fill="#764ba2" opacity="1.000000" stroke="none"
	d="
M296.573547,795.522461 
	C292.039764,802.340759 287.871185,808.976807 283.295685,815.319214 
	C281.656158,817.591980 282.046387,819.012146 283.400940,821.006348 
	C291.354156,832.715759 299.234314,844.474976 307.094482,856.247131 
	C308.165802,857.851624 309.703827,859.288208 309.638000,862.239319 
	C302.027863,862.239319 294.465027,862.307556 286.904846,862.195679 
	C284.762207,862.164001 284.079529,860.082153 283.107513,858.572998 
	C277.900269,850.488647 272.715088,842.390137 267.298096,833.947144 
	C262.226379,842.231873 257.227936,850.048828 252.620087,858.089722 
	C250.691269,861.455444 248.327454,862.648254 244.556793,862.465698 
	C238.932922,862.193359 233.286118,862.395020 227.728455,862.395020 
	C226.746780,859.336975 228.681000,857.834839 229.774200,856.147278 
	C237.016434,844.967651 244.272690,833.795105 251.710007,822.745178 
	C253.662460,819.844299 253.748245,817.671997 251.689102,814.706177 
	C243.999313,803.630554 236.592087,792.358765 229.087296,781.154846 
	C228.363281,780.073975 227.351868,779.113586 227.488831,776.828003 
	C235.126038,776.828003 242.823578,776.762817 250.518555,776.873718 
	C252.447220,776.901550 253.077698,778.831787 253.931808,780.215576 
	C258.555542,787.706604 263.139465,795.222229 268.067017,803.268005 
	C272.809601,797.051086 276.394012,790.728760 279.586029,784.313232 
	C282.597137,778.261292 286.559998,775.618408 293.317932,776.571594 
	C297.993988,777.231079 302.836853,776.093750 308.583588,777.411560 
	C304.417114,783.698120 300.597626,789.461182 296.573547,795.522461 
z"/>
<path fill="#764ba2" opacity="1.000000" stroke="none"
	d="
M635.649902,770.791992 
	C635.845093,746.709595 657.730530,732.215698 679.671509,741.164612 
	C681.170837,741.776123 682.289001,742.501221 682.275879,744.339722 
	C682.240479,749.304016 682.263733,754.268677 682.263733,759.155823 
	C679.281799,760.219482 677.331116,758.466492 675.189758,757.891785 
	C664.584412,755.045593 656.801514,761.288818 657.428223,772.162415 
	C657.603638,775.205933 658.741150,776.729675 661.997314,776.632996 
	C666.946045,776.485962 671.902466,776.594604 676.913452,776.594604 
	C678.294434,781.957764 676.216187,786.783691 676.158630,791.705750 
	C676.132629,793.930664 674.211182,794.134521 672.488098,794.164124 
	C669.156738,794.221436 665.812439,794.392151 662.495117,794.179443 
	C658.515381,793.924255 657.292480,795.673340 657.315979,799.476990 
	C657.433228,818.470093 657.369690,837.464294 657.369690,856.458069 
	C657.369690,858.108643 657.369629,859.759277 657.369629,862.273560 
	C650.521545,862.273560 643.940674,862.425659 637.371948,862.209534 
	C634.074219,862.101013 634.864014,859.169067 634.858521,857.186157 
	C634.807800,838.858948 634.841980,820.531555 634.857361,802.204163 
	C634.864075,794.197266 634.870239,794.197266 627.092285,794.199158 
	C619.683533,794.200928 619.683533,794.200928 619.674072,786.779114 
	C619.661316,776.769775 619.662109,776.631042 629.751831,776.688110 
	C633.755005,776.710754 636.365173,775.977966 635.649902,770.791992 
z"/>
<path fill="#764ba2" opacity="1.000000" stroke="none"
	d="
M933.313110,778.000244 
	C933.318115,804.482361 933.239563,830.464966 933.411194,856.445923 
	C933.440491,860.876587 932.304382,862.906128 927.565613,862.460266 
	C923.933594,862.118530 920.243652,862.405701 916.579590,862.386475 
	C909.884399,862.351379 909.831665,862.343201 909.824219,855.804749 
	C909.807495,841.148315 909.855347,826.491821 909.864502,811.835388 
	C909.877380,791.183105 910.001038,770.529541 909.793030,749.879395 
	C909.745605,745.163513 911.049316,743.167542 915.966125,743.587952 
	C920.099976,743.941406 924.295227,743.823425 928.449036,743.621216 
	C932.096375,743.443604 933.466125,744.819519 933.395630,748.521362 
	C933.211731,758.177979 933.321411,767.840210 933.313110,778.000244 
z"/>
<path fill="#764ba2" opacity="1.000000" stroke="none"
	d="
M402.726196,838.000000 
	C402.730835,808.183228 402.822052,778.866028 402.649017,749.550293 
	C402.622253,745.020630 403.872375,743.195068 408.533264,743.595459 
	C412.501801,743.936462 416.531952,743.837219 420.517731,743.619385 
	C424.209320,743.417786 425.437408,744.858093 425.405823,748.531372 
	C425.264038,765.020874 425.348083,781.512207 425.348511,798.002930 
	C425.349030,817.491943 425.232361,836.982056 425.433197,856.468994 
	C425.479401,860.954102 424.243378,862.855530 419.551300,862.462341 
	C415.415558,862.115784 411.224548,862.262451 407.065765,862.410461 
	C403.830139,862.525574 402.626709,861.177734 402.692413,857.988159 
	C402.826141,851.494629 402.728455,844.996338 402.726196,838.000000 
z"/>
<path fill="#764ba2" opacity="1.000000" stroke="none"
	d="
M217.349945,783.341492 
	C217.355301,807.958008 217.245865,832.114075 217.463593,856.267212 
	C217.506699,861.049133 216.130219,862.955078 211.270111,862.457092 
	C207.972855,862.119324 204.585587,862.117981 201.287964,862.452698 
	C196.308960,862.957947 194.631104,861.210327 194.709381,856.058472 
	C194.990295,837.571716 194.807755,819.077942 194.805283,800.586853 
	C194.804398,794.090027 194.889603,787.592102 194.792938,781.096863 
	C194.746582,777.982056 195.865616,776.534180 199.158066,776.620605 
	C204.964050,776.772949 210.776917,776.663269 216.343567,776.663269 
	C217.889511,778.886475 217.138733,780.947266 217.349945,783.341492 
z"/>
<path fill="#764ba2" opacity="1.000000" stroke="none"
	d="
M294.168213,568.724854 
	C302.457336,568.702515 310.267426,568.810364 318.070862,568.629639 
	C321.749023,568.544434 323.547272,569.498962 323.408997,573.633728 
	C323.142609,581.598511 323.183350,589.581482 323.377350,597.550171 
	C323.469696,601.343445 321.879822,602.435547 318.340485,602.362061 
	C310.370331,602.196411 302.391357,602.166931 294.422546,602.357666 
	C290.663300,602.447632 289.526001,600.936890 289.607971,597.355225 
	C289.790375,589.385864 289.723145,581.408936 289.637665,573.436340 
	C289.606598,570.536926 290.197479,568.464966 294.168213,568.724854 
z"/>
<path fill="#764ba2" opacity="1.000000" stroke="none"
	d="
M425.341919,657.002747 
	C425.334808,661.986877 425.234131,666.474304 425.353210,670.955994 
	C425.427765,673.762146 424.126831,674.873291 421.494629,674.877441 
	C413.023407,674.890808 404.552155,674.917053 396.080933,674.945801 
	C393.092621,674.955933 391.553284,673.819336 391.619751,670.493835 
	C391.782379,662.357483 391.766846,654.214294 391.634216,646.076965 
	C391.580963,642.810425 392.964966,641.677612 396.080261,641.707825 
	C404.550903,641.790161 413.023346,641.762329 421.494293,641.687500 
	C424.225555,641.663391 425.413940,642.790283 425.342682,645.541077 
	C425.248077,649.192810 425.333313,652.849243 425.341919,657.002747 
z"/>
<path fill="#764ba2" opacity="1.000000" stroke="none"
	d="
M377.109436,630.886597 
	C376.951630,638.254639 376.951630,638.263916 370.202271,638.267456 
	C362.896851,638.271301 355.589325,638.150818 348.286896,638.294617 
	C344.888733,638.361511 343.539459,637.139954 343.608154,633.661072 
	C343.768677,625.528748 343.767365,617.388306 343.589325,609.256470 
	C343.512756,605.759033 344.867371,604.586365 348.264984,604.647278 
	C356.397858,604.793213 364.536896,604.772888 372.670197,604.631531 
	C375.868378,604.575928 377.172180,605.775024 377.125092,608.984802 
	C377.020386,616.122314 377.104584,623.262695 377.109436,630.886597 
z"/>
<path fill="#764ba2" opacity="1.000000" stroke="none"
	d="
M649.148926,635.574951 
	C648.903564,626.174255 648.883057,617.209106 648.739624,608.246033 
	C648.689331,605.107178 649.954834,603.721130 653.153503,603.751221 
	C661.622070,603.830811 670.092346,603.800171 678.561279,603.730652 
	C681.336670,603.707886 682.377625,604.961426 682.354431,607.661133 
	C682.280212,616.296204 682.313965,624.932251 682.324158,633.567932 
	C682.326538,635.632141 681.780945,637.231079 679.334229,637.222778 
	C669.872192,637.190613 660.410095,637.149292 650.948853,637.037354 
	C650.403748,637.030945 649.866394,636.368530 649.148926,635.574951 
z"/>
<path fill="#764ba2" opacity="1.000000" stroke="none"
	d="
M714.024475,568.709961 
	C720.348938,568.710388 726.179321,568.817566 732.003357,568.672485 
	C735.321411,568.589844 737.008789,569.801575 736.992676,573.240173 
	C736.955261,581.231995 736.961609,589.224365 737.009827,597.216125 
	C737.027222,600.100525 735.862854,601.424561 732.834961,601.385498 
	C724.344543,601.275818 715.849915,601.238037 707.360901,601.391235 
	C703.881042,601.453979 702.630188,600.091858 702.693481,596.686340 
	C702.829590,589.362671 702.923157,582.026855 702.640747,574.711182 
	C702.468811,570.255981 703.802734,568.078247 708.537048,568.693359 
	C710.173706,568.905945 711.862671,568.716736 714.024475,568.709961 
z"/>
<path fill="#764ba2" opacity="1.000000" stroke="none"
	d="
M607.083984,641.646851 
	C614.715454,641.649292 621.861938,641.793884 628.998657,641.593323 
	C632.574829,641.492859 634.181519,642.641296 634.110413,646.370483 
	C633.964722,654.008301 634.028503,661.650818 634.064209,669.291138 
	C634.079773,672.621399 633.092529,674.528931 629.193665,674.424683 
	C621.226685,674.211731 613.247864,674.277588 605.277649,674.427063 
	C601.867798,674.491028 600.542480,673.244080 600.622498,669.775818 
	C600.794922,662.305176 600.946960,654.813843 600.570618,647.358093 
	C600.329285,642.579407 602.210876,641.047363 607.083984,641.646851 
z"/>
<path fill="#764ba2" opacity="1.000000" stroke="none"
	d="
M753.986816,540.314880 
	C748.661621,540.313599 743.830933,540.200806 739.008240,540.348938 
	C735.775085,540.448181 734.581360,539.123108 734.632935,535.929810 
	C734.761902,527.941833 734.735229,519.950012 734.655701,511.960876 
	C734.626099,508.985748 735.889221,507.766022 738.837341,507.791626 
	C746.992859,507.862457 755.149414,507.806030 763.305603,507.811432 
	C765.452759,507.812836 767.311707,508.126343 767.353577,510.960724 
	C767.468872,518.773376 767.697693,526.584473 767.797363,534.397278 
	C767.850769,538.586792 766.196472,540.996826 761.469055,540.369263 
	C759.178833,540.065308 756.815125,540.315247 753.986816,540.314880 
z"/>
<path fill="#764ba2" opacity="1.000000" stroke="none"
	d="
M290.323608,525.992432 
	C290.312042,540.228149 290.312042,540.232178 276.617737,540.223694 
	C271.795471,540.220703 266.972382,540.130981 262.151276,540.198425 
	C259.122131,540.240723 257.555298,539.218079 257.613220,535.871887 
	C257.751434,527.892517 257.708344,519.908447 257.624268,511.927490 
	C257.594788,509.130096 258.381042,507.585205 261.542053,507.628082 
	C269.854797,507.740814 278.170441,507.707458 286.484192,507.640259 
	C289.237579,507.618011 290.370605,508.799225 290.322266,511.527344 
	C290.239777,516.181763 290.314392,520.838928 290.323608,525.992432 
z"/>
<path fill="#764ba2" opacity="1.000000" stroke="none"
	d="
M199.333908,744.066345 
	C206.549835,741.115112 212.433456,742.270142 215.804886,747.039917 
	C218.896088,751.413208 218.527405,757.541077 214.917099,761.796082 
	C210.411835,767.105774 201.871399,767.501831 197.142288,762.620361 
	C192.013062,757.325867 192.795334,749.588318 199.333908,744.066345 
z"/>
<path fill="#764ba2" opacity="1.000000" stroke="none"
	d="
M530.663635,243.027069 
	C552.733398,250.134293 567.744507,270.718414 568.430542,293.551819 
	C568.705078,302.690857 569.323608,311.816010 569.293457,320.974915 
	C569.279785,325.122833 567.704529,326.382507 563.644409,326.366852 
	C529.502869,326.235168 495.360413,326.213226 461.219025,326.348724 
	C456.621979,326.366974 455.232452,325.002594 455.477722,320.312775 
	C456.144836,307.556152 454.602936,294.690460 457.671692,282.053253 
	C463.703949,257.212219 488.104950,239.079529 513.563843,240.425476 
	C519.238403,240.725464 524.829590,241.244507 530.663635,243.027069 
z"/>
<path fill="#764ba2" opacity="1.000000" stroke="none"
	d="
M485.811829,405.721741 
	C482.015198,387.041443 493.387299,374.676147 505.569733,371.589294 
	C517.878418,368.470459 530.792908,373.677795 536.834778,384.552032 
	C543.300659,396.189362 541.637512,410.499756 531.574646,418.660919 
	C526.685303,422.626251 526.621826,426.215790 527.749146,431.445587 
	C530.160034,442.629425 532.070374,453.921844 534.125488,465.180817 
	C534.416809,466.776978 534.370178,468.434845 534.520630,470.667023 
	C519.198364,471.553223 504.202271,471.159088 488.649811,470.152740 
	C491.166931,457.170624 493.456451,444.630768 496.080566,432.161316 
	C497.251740,426.596130 498.105377,421.758240 492.407196,417.703461 
	C488.749298,415.100525 487.156342,410.512695 485.811829,405.721741 
z"/>
</svg>